<svg width="80" height="80" viewBox="0 0 80 80" fill="none" xmlns="http://www.w3.org/2000/svg">
<g filter="url(#filter0_d)">
<mask id="mask0" mask-type="alpha" maskUnits="userSpaceOnUse" x="4" y="2" width="72" height="72">
<path fill-rule="evenodd" clip-rule="evenodd" d="M40 2C11.2 2 4 9.2 4 38C4 66.8 11.2 74 40 74C68.8 74 76 66.8 76 38C76 9.2 68.8 2 40 2Z" fill="white"/>
</mask>
<g mask="url(#mask0)">
<rect x="-14" y="-16" width="108" height="108" fill="white"/>
<path d="M56.7972 51.327C52.3401 40.915 47.8739 30.5075 43.3987 20.1044C43.1537 19.4497 42.6968 18.891 42.0973 18.5128C41.4977 18.1346 40.7882 17.9576 40.0764 18.0086C39.3884 17.9896 38.7129 18.1906 38.1527 18.581C37.5924 18.9714 37.1782 19.5297 36.9728 20.1711C32.4976 30.6365 28.0359 41.1286 23.588 51.6474C22.7677 53.5562 23.2872 55.1447 24.7775 55.7454C25.1942 55.9202 25.6441 56.0068 26.0976 55.9996C26.551 55.9924 26.9978 55.8915 27.4085 55.7036C27.8192 55.5158 28.1845 55.2451 28.4803 54.9095C28.7762 54.5739 28.996 54.181 29.1251 53.7565C29.9181 51.9944 30.7248 50.2458 31.4084 48.417C31.493 48.2249 31.5889 48.0377 31.6955 47.8563L39.8986 28.781C41.7854 33.0126 43.508 36.9104 45.3674 40.9951C46.3791 43.2733 47.3954 45.5648 48.4163 47.8697C48.5523 48.0666 48.6669 48.2769 48.7581 48.4971C49.5237 50.4326 50.3577 52.3549 51.301 54.2103C51.5981 54.8841 52.1449 55.4235 52.8319 55.7206C53.5189 56.0176 54.2955 56.0503 55.0061 55.8122C55.7174 55.5944 56.3257 55.1359 56.7217 54.5193C57.1177 53.9026 57.2754 53.1683 57.1663 52.4483C57.0789 52.0642 56.9554 51.6889 56.7972 51.327Z" fill="#FFC107"/>
</g>
</g>
<defs>
<filter id="filter0_d" x="0" y="0" width="80" height="80" filterUnits="userSpaceOnUse" color-interpolation-filters="sRGB">
<feFlood flood-opacity="0" result="BackgroundImageFix"/>
<feColorMatrix in="SourceAlpha" type="matrix" values="0 0 0 0 0 0 0 0 0 0 0 0 0 0 0 0 0 0 127 0"/>
<feOffset dy="2"/>
<feGaussianBlur stdDeviation="2"/>
<feColorMatrix type="matrix" values="0 0 0 0 0 0 0 0 0 0 0 0 0 0 0 0 0 0 0.2 0"/>
<feBlend mode="normal" in2="BackgroundImageFix" result="effect1_dropShadow"/>
<feBlend mode="normal" in="SourceGraphic" in2="effect1_dropShadow" result="shape"/>
</filter>
</defs>
</svg>
