<svg width="116" height="51" viewBox="0 0 116 51" fill="none" xmlns="http://www.w3.org/2000/svg">
<path d="M39.58 18.64C40.38 18.64 41.0467 18.8667 41.58 19.32C42.14 19.7733 42.42 20.3067 42.42 20.92C42.42 21.7467 42.2067 22.3733 41.78 22.8C41.3533 23.2 40.8467 23.4 40.26 23.4C39.86 23.4 39.4067 23.3067 38.9 23.12C38.82 23.0933 38.6333 23.04 38.34 22.96C38.0733 22.88 37.78 22.84 37.46 22.84C36.7667 22.84 36.1 23.0533 35.46 23.48C34.82 23.9067 34.2867 24.56 33.86 25.44C33.46 26.2933 33.26 27.32 33.26 28.52V38C33.26 38.6933 33.0333 39.28 32.58 39.76C32.1267 40.2133 31.5533 40.44 30.86 40.44C30.1667 40.44 29.5933 40.2133 29.14 39.76C28.6867 39.28 28.46 38.6933 28.46 38V21.48C28.46 20.7867 28.6867 20.2133 29.14 19.76C29.5933 19.28 30.1667 19.04 30.86 19.04C31.5533 19.04 32.1267 19.28 32.58 19.76C33.0333 20.2133 33.26 20.7867 33.26 21.48V22C33.8733 20.9067 34.7533 20.08 35.9 19.52C37.0467 18.9333 38.2733 18.64 39.58 18.64ZM56.9238 18.64C57.7238 18.64 58.3904 18.8667 58.9238 19.32C59.4838 19.7733 59.7638 20.3067 59.7638 20.92C59.7638 21.7467 59.5504 22.3733 59.1238 22.8C58.6971 23.2 58.1904 23.4 57.6038 23.4C57.2038 23.4 56.7504 23.3067 56.2438 23.12C56.1638 23.0933 55.9771 23.04 55.6838 22.96C55.4171 22.88 55.1238 22.84 54.8038 22.84C54.1104 22.84 53.4438 23.0533 52.8038 23.48C52.1638 23.9067 51.6304 24.56 51.2038 25.44C50.8038 26.2933 50.6038 27.32 50.6038 28.52V38C50.6038 38.6933 50.3771 39.28 49.9238 39.76C49.4704 40.2133 48.8971 40.44 48.2038 40.44C47.5104 40.44 46.9371 40.2133 46.4838 39.76C46.0304 39.28 45.8038 38.6933 45.8038 38V21.48C45.8038 20.7867 46.0304 20.2133 46.4838 19.76C46.9371 19.28 47.5104 19.04 48.2038 19.04C48.8971 19.04 49.4704 19.28 49.9238 19.76C50.3771 20.2133 50.6038 20.7867 50.6038 21.48V22C51.2171 20.9067 52.0971 20.08 53.2438 19.52C54.3904 18.9333 55.6171 18.64 56.9238 18.64ZM82.8091 29.76C82.8091 31.8933 82.3291 33.8133 81.3691 35.52C80.4091 37.2 79.0891 38.5067 77.4091 39.44C75.7557 40.3733 73.9291 40.84 71.9291 40.84C69.9024 40.84 68.0624 40.3733 66.4091 39.44C64.7557 38.5067 63.4491 37.2 62.4891 35.52C61.5291 33.8133 61.0491 31.8933 61.0491 29.76C61.0491 27.6267 61.5291 25.72 62.4891 24.04C63.4491 22.3333 64.7557 21.0133 66.4091 20.08C68.0624 19.12 69.9024 18.64 71.9291 18.64C73.9291 18.64 75.7557 19.12 77.4091 20.08C79.0891 21.0133 80.4091 22.3333 81.3691 24.04C82.3291 25.72 82.8091 27.6267 82.8091 29.76ZM78.0091 29.76C78.0091 28.4533 77.7291 27.2933 77.1691 26.28C76.6357 25.24 75.9024 24.44 74.9691 23.88C74.0624 23.32 73.0491 23.04 71.9291 23.04C70.8091 23.04 69.7824 23.32 68.8491 23.88C67.9424 24.44 67.2091 25.24 66.6491 26.28C66.1157 27.2933 65.8491 28.4533 65.8491 29.76C65.8491 31.0667 66.1157 32.2267 66.6491 33.24C67.2091 34.2533 67.9424 35.04 68.8491 35.6C69.7824 36.16 70.8091 36.44 71.9291 36.44C73.0491 36.44 74.0624 36.16 74.9691 35.6C75.9024 35.04 76.6357 34.2533 77.1691 33.24C77.7291 32.2267 78.0091 31.0667 78.0091 29.76ZM111.459 19.04C112.099 19.04 112.633 19.28 113.059 19.76C113.513 20.2133 113.739 20.8 113.739 21.52C113.739 21.76 113.686 22.0667 113.579 22.44L107.459 38.92C107.299 39.4 107.006 39.7867 106.579 40.08C106.179 40.3467 105.739 40.48 105.259 40.48L104.939 40.44C104.033 40.3867 103.353 39.88 102.899 38.92L99.4994 29.08L96.2594 38.92C95.806 39.88 95.126 40.3867 94.2194 40.44L93.8994 40.48C93.4194 40.48 92.966 40.3467 92.5394 40.08C92.1394 39.7867 91.8594 39.4 91.6994 38.92L85.5794 22.44C85.4727 22.1467 85.4194 21.84 85.4194 21.52C85.4194 20.8533 85.6327 20.28 86.0594 19.8C86.5127 19.2933 87.0994 19.04 87.8194 19.04C88.3527 19.04 88.806 19.1733 89.1794 19.44C89.5794 19.68 89.8594 20.0533 90.0194 20.56L94.3394 32.28L97.4994 23.72C97.926 22.7333 98.6594 22.24 99.6994 22.24C100.259 22.24 100.686 22.36 100.979 22.6C101.299 22.84 101.566 23.2133 101.779 23.72L104.859 32.08L109.139 20.56C109.299 20.0533 109.579 19.68 109.979 19.44C110.379 19.1733 110.873 19.04 111.459 19.04Z" fill="black"/>
<path d="M24.73 36.76C21.47 28.96 18.2033 21.1633 14.93 13.37C14.7508 12.8796 14.4167 12.461 13.9782 12.1777C13.5396 11.8944 13.0207 11.7618 12.5 11.8C11.9968 11.7858 11.5027 11.9364 11.093 12.2288C10.6832 12.5212 10.3802 12.9395 10.23 13.42C6.95667 21.26 3.69334 29.12 0.440005 37C-0.159995 38.43 0.22 39.62 1.31 40.07C1.61481 40.2009 1.94387 40.2658 2.27555 40.2604C2.60723 40.255 2.93402 40.1794 3.23441 40.0387C3.53479 39.8979 3.80198 39.6952 4.01839 39.4438C4.2348 39.1924 4.39552 38.898 4.49 38.58C5.07 37.26 5.66001 35.95 6.16001 34.58C6.22192 34.4361 6.29204 34.2959 6.37 34.16L12.37 19.87C13.75 23.04 15.01 25.96 16.37 29.02C17.11 30.7267 17.8533 32.4433 18.6 34.17C18.6995 34.3175 18.7833 34.475 18.85 34.64C19.41 36.09 20.02 37.53 20.71 38.92C20.9273 39.4248 21.3272 39.8289 21.8297 40.0514C22.3322 40.2739 22.9002 40.2984 23.42 40.12C23.9402 39.9568 24.3852 39.6134 24.6748 39.1514C24.9644 38.6895 25.0798 38.1394 25 37.6C24.9361 37.3123 24.8457 37.0311 24.73 36.76V36.76Z" fill="#FFC107"/>
</svg>
